{
  "accessors": [
    {
      "bufferView": 1,
      "componentType": 5126,
      "count": 266,
      "max": [
        1.0090411901473999,
        1.1120799779891968,
        1.1402232646942139
      ],
      "min": [
        -1.0951137542724609,
        -1.1672956943511963,
        -1.0585809946060181
      ],
      "type": "VEC3"
    },
    {
      "bufferView": 1,
      "byteOffset": 3192,
      "componentType": 5126,
      "count": 266,
      "max": [
        0.96765100955963135,
        0.95667022466659546,
        0.98481935262680054
      ],
      "min": [
        -0.9892156720161438,
        -0.96356213092803955,
        -0.98599427938461304
      ],
      "type": "VEC3"
    },
    {
      "bufferView": 2,
      "componentType": 5126,
      "count": 266,
      "max": [
        0.97615408897399902,
        0.89334666728973389,
        0.99937093257904053,
        1
      ],
      "min": [
        -0.90065938234329224,
        -0.88355416059494019,
        -0.99092280864715576,
        1
      ],
      "type": "VEC4"
    },
    {
      "bufferView": 0,
      "componentType": 5125,
      "count": 276,
      "max": [
        265
      ],
      "min": [
        0
      ],
      "type": "SCALAR"
    }
  ],
  "asset": {
    "extras": {
      "author": "mankindforward (https://sketchfab.com/mankindforward)",
      "license": "CC-BY-4.0 (http://creativecommons.org/licenses/by/4.0/)",
      "source": "https://sketchfab.com/models/ca1e76fd4e7b4a90afe7d2b81ad7970c",
      "title": "Low Poly Storm Cloud"
    },
    "generator": "Sketchfab-3.18.5",
    "version": "2.0"
  },
  "bufferViews": [
    {
      "buffer": 0,
      "byteLength": 1104,
      "byteOffset": 0,
      "name": "floatBufferViews",
      "target": 34963
    },
    {
      "buffer": 0,
      "byteLength": 6384,
      "byteOffset": 1104,
      "byteStride": 12,
      "name": "floatBufferViews",
      "target": 34962
    },
    {
      "buffer": 0,
      "byteLength": 4256,
      "byteOffset": 7488,
      "byteStride": 16,
      "name": "floatBufferViews",
      "target": 34962
    }
  ],
  "buffers": [
    {
      "byteLength": 11744,
      "uri": "scene.bin"
    }
  ],
  "materials": [
    {
      "doubleSided": true,
      "emissiveFactor": [
        0,
        0,
        0
      ],
      "name": "cloud01-1480514132280-1000-1000-1000",
      "pbrMetallicRoughness": {
        "baseColorFactor": [
          1,
          1,
          1,
          1
        ],
        "metallicFactor": 0,
        "roughnessFactor": 0.59999999999999998
      }
    }
  ],
  "meshes": [
    {
      "name": "cloud01_cloud01-1480514132280-1000-1000-1000_0",
      "primitives": [
        {
          "attributes": {
            "NORMAL": 1,
            "POSITION": 0,
            "TANGENT": 2
          },
          "indices": 3,
          "material": 0,
          "mode": 4
        }
      ]
    }
  ],
  "nodes": [
    {
      "children": [
        1
      ],
      "name": "RootNode (gltf orientation matrix)",
      "rotation": [
        -0.70710678118654746,
        -0,
        -0,
        0.70710678118654757
      ]
    },
    {
      "children": [
        2
      ],
      "name": "RootNode (model correction matrix)"
    },
    {
      "children": [
        3
      ],
      "matrix": [
        1,
        0,
        0,
        0,
        0,
        0,
        1,
        0,
        0,
        -1,
        0,
        0,
        0,
        0,
        0,
        1
      ],
      "name": "cloud01-1480514132297.fbx"
    },
    {
      "children": [
        4
      ],
      "name": "RootNode"
    },
    {
      "children": [
        5
      ],
      "matrix": [
        336.60040283203125,
        0,
        0,
        0,
        0,
        -2.7785841452603578e-05,
        -170.5482788085915,
        0,
        0,
        100.34067535400258,
        -1.6347570999309512e-05,
        0,
        0,
        0,
        0,
        1
      ],
      "name": "cloud01"
    },
    {
      "mesh": 0,
      "name": "cloud01_cloud01-1480514132280-1000-1000-1000_0"
    }
  ],
  "scene": 0,
  "scenes": [
    {
      "name": "OSG_Scene",
      "nodes": [
        0
      ]
    }
  ]
}

