{
  "accessors": [
    {
      "bufferView": 2,
      "componentType": 5126,
      "count": 1450,
      "max": [
        1.0148829221725464,
        1.0148826837539673,
        2.0121994018554688
      ],
      "min": [
        -1.0148831605911255,
        -1.014883279800415,
        -0.013901233673095703
      ],
      "type": "VEC3"
    },
    {
      "bufferView": 2,
      "byteOffset": 17400,
      "componentType": 5126,
      "count": 1450,
      "max": [
        1,
        1,
        1
      ],
      "min": [
        -1,
        -1,
        -1
      ],
      "type": "VEC3"
    },
    {
      "bufferView": 3,
      "componentType": 5126,
      "count": 1450,
      "max": [
        0.99999892711639404,
        0.99999821186065674,
        0.056471012532711029,
        1
      ],
      "min": [
        -0.99999731779098511,
        -1,
        -0.047122426331043243,
        1
      ],
      "type": "VEC4"
    },
    {
      "bufferView": 1,
      "componentType": 5126,
      "count": 1450,
      "max": [
        0.99111264944076538,
        0.98003125190734863
      ],
      "min": [
        0.015720456838607788,
        0.046899288892745972
      ],
      "type": "VEC2"
    },
    {
      "bufferView": 0,
      "componentType": 5125,
      "count": 4596,
      "max": [
        1449
      ],
      "min": [
        0
      ],
      "type": "SCALAR"
    },
    {
      "bufferView": 2,
      "byteOffset": 34800,
      "componentType": 5126,
      "count": 1852,
      "max": [
        1.0148829221725464,
        1.0148826837539673,
        2.0190210342407227
      ],
      "min": [
        -1.0148831605911255,
        -1.014883279800415,
        -0.013901233673095703
      ],
      "type": "VEC3"
    },
    {
      "bufferView": 2,
      "byteOffset": 57024,
      "componentType": 5126,
      "count": 1852,
      "max": [
        1,
        1,
        1
      ],
      "min": [
        -1,
        -1,
        -1
      ],
      "type": "VEC3"
    },
    {
      "bufferView": 3,
      "byteOffset": 23200,
      "componentType": 5126,
      "count": 1852,
      "max": [
        0.99999850988388062,
        0.99999934434890747,
        1,
        1
      ],
      "min": [
        -0.99999713897705078,
        -1,
        -0.91158366203308105,
        1
      ],
      "type": "VEC4"
    },
    {
      "bufferView": 1,
      "byteOffset": 11600,
      "componentType": 5126,
      "count": 1852,
      "max": [
        0.97149646282196045,
        0.98003125190734863
      ],
      "min": [
        0.054221153259277344,
        0.046899288892745972
      ],
      "type": "VEC2"
    },
    {
      "bufferView": 0,
      "byteOffset": 18384,
      "componentType": 5125,
      "count": 5838,
      "max": [
        1851
      ],
      "min": [
        0
      ],
      "type": "SCALAR"
    }
  ],
  "asset": {
    "extras": {
      "author": "person-x (https://sketchfab.com/person-x)",
      "license": "CC-BY-4.0 (http://creativecommons.org/licenses/by/4.0/)",
      "source": "https://sketchfab.com/models/495bfa9aa0144b838b386081668b13e1",
      "title": "Old Barrel"
    },
    "generator": "Sketchfab-3.23.2",
    "version": "2.0"
  },
  "bufferViews": [
    {
      "buffer": 0,
      "byteLength": 41736,
      "byteOffset": 0,
      "name": "floatBufferViews",
      "target": 34963
    },
    {
      "buffer": 0,
      "byteLength": 26416,
      "byteOffset": 41736,
      "byteStride": 8,
      "name": "floatBufferViews",
      "target": 34962
    },
    {
      "buffer": 0,
      "byteLength": 79248,
      "byteOffset": 68152,
      "byteStride": 12,
      "name": "floatBufferViews",
      "target": 34962
    },
    {
      "buffer": 0,
      "byteLength": 52832,
      "byteOffset": 147400,
      "byteStride": 16,
      "name": "floatBufferViews",
      "target": 34962
    }
  ],
  "buffers": [
    {
      "byteLength": 200232,
      "uri": "scene.bin"
    }
  ],
  "extensionsRequired": [
    "KHR_materials_pbrSpecularGlossiness"
  ],
  "extensionsUsed": [
    "KHR_materials_pbrSpecularGlossiness"
  ],
  "images": [
    {
      "uri": "textures/barrel2_diffuse.png"
    },
    {
      "uri": "textures/barrel2_normal.png"
    },
    {
      "uri": "textures/barrel_diffuse.png"
    },
    {
      "uri": "textures/barrel_normal.png"
    }
  ],
  "materials": [
    {
      "doubleSided": true,
      "emissiveFactor": [
        0,
        0,
        0
      ],
      "extensions": {
        "KHR_materials_pbrSpecularGlossiness": {
          "diffuseFactor": [
            1,
            1,
            1,
            1
          ],
          "diffuseTexture": {
            "index": 2,
            "texCoord": 0
          },
          "glossinessFactor": 0.042294850500000002,
          "specularFactor": [
            0.050000000000000003,
            0.050000000000000003,
            0.050000000000000003
          ]
        }
      },
      "name": "barrel",
      "normalTexture": {
        "index": 3,
        "scale": 1,
        "texCoord": 0
      }
    },
    {
      "doubleSided": true,
      "emissiveFactor": [
        0,
        0,
        0
      ],
      "extensions": {
        "KHR_materials_pbrSpecularGlossiness": {
          "diffuseFactor": [
            1,
            1,
            1,
            1
          ],
          "diffuseTexture": {
            "index": 0,
            "texCoord": 0
          },
          "glossinessFactor": 0.042294850500000002,
          "specularFactor": [
            0.050000000000000003,
            0.050000000000000003,
            0.050000000000000003
          ]
        }
      },
      "name": "barrel2",
      "normalTexture": {
        "index": 1,
        "scale": 1,
        "texCoord": 0
      }
    }
  ],
  "meshes": [
    {
      "name": "Barrel_barrel_0",
      "primitives": [
        {
          "attributes": {
            "NORMAL": 1,
            "POSITION": 0,
            "TANGENT": 2,
            "TEXCOORD_0": 3
          },
          "indices": 4,
          "material": 0,
          "mode": 4
        }
      ]
    },
    {
      "name": "Barrel02_barrel2_0",
      "primitives": [
        {
          "attributes": {
            "NORMAL": 6,
            "POSITION": 5,
            "TANGENT": 7,
            "TEXCOORD_0": 8
          },
          "indices": 9,
          "material": 1,
          "mode": 4
        }
      ]
    }
  ],
  "nodes": [
    {
      "children": [
        1
      ],
      "name": "RootNode (gltf orientation matrix)",
      "rotation": [
        -0.70710678118654746,
        -0,
        -0,
        0.70710678118654757
      ]
    },
    {
      "children": [
        2
      ],
      "name": "RootNode (model correction matrix)"
    },
    {
      "children": [
        3
      ],
      "matrix": [
        1,
        0,
        0,
        0,
        0,
        0,
        1,
        0,
        0,
        -1,
        0,
        0,
        0,
        0,
        0,
        1
      ],
      "name": "Barrel.fbx"
    },
    {
      "children": [
        4,
        6
      ],
      "name": "RootNode"
    },
    {
      "children": [
        5
      ],
      "matrix": [
        33.793994903564453,
        0,
        0,
        0,
        0,
        -5.505740609052809e-06,
        -33.793994903564005,
        0,
        0,
        54.55501174926686,
        -8.8881395784200198e-06,
        0,
        0,
        0,
        47.349082946777344,
        1
      ],
      "name": "Barrel"
    },
    {
      "mesh": 0,
      "name": "Barrel_barrel_0"
    },
    {
      "children": [
        7
      ],
      "matrix": [
        -17.80727042085374,
        8.2181658883390896e-07,
        -28.721680902639065,
        0,
        -28.721680902635665,
        1.5962571772146564e-05,
        17.807270420852088,
        0,
        2.2600306312433402e-05,
        54.555011749261475,
        -1.2451066274382243e-05,
        0,
        0,
        0,
        -59.492301940917969,
        1
      ],
      "name": "Barrel02"
    },
    {
      "mesh": 1,
      "name": "Barrel02_barrel2_0"
    }
  ],
  "samplers": [
    {
      "magFilter": 9729,
      "minFilter": 9987,
      "wrapS": 10497,
      "wrapT": 10497
    }
  ],
  "scene": 0,
  "scenes": [
    {
      "name": "OSG_Scene",
      "nodes": [
        0
      ]
    }
  ],
  "textures": [
    {
      "sampler": 0,
      "source": 0
    },
    {
      "sampler": 0,
      "source": 1
    },
    {
      "sampler": 0,
      "source": 2
    },
    {
      "sampler": 0,
      "source": 3
    }
  ]
}

