{
  "accessors": [
    {
      "bufferView": 2,
      "componentType": 5126,
      "count": 1376,
      "max": [
        228.54605102539062,
        454.86331176757812,
        515.293701171875
      ],
      "min": [
        -228.54605102539062,
        -454.86331176757812,
        -515.293701171875
      ],
      "type": "VEC3"
    },
    {
      "bufferView": 2,
      "byteOffset": 16512,
      "componentType": 5126,
      "count": 1376,
      "max": [
        1,
        1,
        1
      ],
      "min": [
        -1,
        -1,
        -1
      ],
      "type": "VEC3"
    },
    {
      "bufferView": 3,
      "componentType": 5126,
      "count": 1376,
      "max": [
        1,
        0.76604807376861572,
        1,
        1
      ],
      "min": [
        -1,
        -0.76604801416397095,
        -1,
        1
      ],
      "type": "VEC4"
    },
    {
      "bufferView": 1,
      "componentType": 5126,
      "count": 1376,
      "max": [
        0.99244570732116699,
        0.99274593591690063
      ],
      "min": [
        0.0075542782433331013,
        0.0072541236877441406
      ],
      "type": "VEC2"
    },
    {
      "bufferView": 0,
      "componentType": 5125,
      "count": 3672,
      "max": [
        1375
      ],
      "min": [
        0
      ],
      "type": "SCALAR"
    }
  ],
  "asset": {
    "extras": {
      "author": "GlowLow (https://sketchfab.com/GlowLow)",
      "license": "CC-BY-4.0 (http://creativecommons.org/licenses/by/4.0/)",
      "source": "https://sketchfab.com/3d-models/rusty-shelf-d7e4cd4e26454aa998ec50ad62343e44",
      "title": "Rusty shelf"
    },
    "generator": "Sketchfab-5.47.0",
    "version": "2.0"
  },
  "bufferViews": [
    {
      "buffer": 0,
      "byteLength": 14688,
      "byteOffset": 0,
      "name": "floatBufferViews",
      "target": 34963
    },
    {
      "buffer": 0,
      "byteLength": 11008,
      "byteOffset": 14688,
      "byteStride": 8,
      "name": "floatBufferViews",
      "target": 34962
    },
    {
      "buffer": 0,
      "byteLength": 33024,
      "byteOffset": 25696,
      "byteStride": 12,
      "name": "floatBufferViews",
      "target": 34962
    },
    {
      "buffer": 0,
      "byteLength": 22016,
      "byteOffset": 58720,
      "byteStride": 16,
      "name": "floatBufferViews",
      "target": 34962
    }
  ],
  "buffers": [
    {
      "byteLength": 80736,
      "uri": "scene.bin"
    }
  ],
  "images": [
    {
      "uri": "textures/trolley_baseColor.png"
    },
    {
      "uri": "textures/trolley_metallicRoughness.png"
    }
  ],
  "materials": [
    {
      "doubleSided": true,
      "emissiveFactor": [
        0,
        0,
        0
      ],
      "name": "trolley",
      "pbrMetallicRoughness": {
        "baseColorFactor": [
          1,
          1,
          1,
          1
        ],
        "baseColorTexture": {
          "index": 0,
          "texCoord": 0
        },
        "metallicFactor": 1,
        "metallicRoughnessTexture": {
          "index": 1,
          "texCoord": 0
        },
        "roughnessFactor": 0.60772728200000004
      }
    }
  ],
  "meshes": [
    {
      "name": "trolley_trolley_0",
      "primitives": [
        {
          "attributes": {
            "NORMAL": 1,
            "POSITION": 0,
            "TANGENT": 2,
            "TEXCOORD_0": 3
          },
          "indices": 4,
          "material": 0,
          "mode": 4
        }
      ]
    }
  ],
  "nodes": [
    {
      "children": [
        1
      ],
      "name": "RootNode (gltf orientation matrix)",
      "rotation": [
        -0.70710678118654746,
        -0,
        -0,
        0.70710678118654757
      ]
    },
    {
      "children": [
        2
      ],
      "name": "RootNode (model correction matrix)"
    },
    {
      "children": [
        3
      ],
      "matrix": [
        1,
        0,
        0,
        0,
        0,
        0,
        1,
        0,
        0,
        -1,
        0,
        0,
        0,
        0,
        0,
        1
      ],
      "name": "88f21687ead5446a9f667c3d0f5916e3.fbx"
    },
    {
      "children": [
        4
      ],
      "name": "RootNode"
    },
    {
      "children": [
        5
      ],
      "matrix": [
        1,
        0,
        0,
        0,
        0,
        1,
        0,
        0,
        0,
        0,
        1,
        0,
        208.29579162597656,
        419.72979736328125,
        -491.57479858398438,
        1
      ],
      "name": "trolley"
    },
    {
      "mesh": 0,
      "name": "trolley_trolley_0"
    }
  ],
  "samplers": [
    {
      "magFilter": 9729,
      "minFilter": 9987,
      "wrapS": 10497,
      "wrapT": 10497
    }
  ],
  "scene": 0,
  "scenes": [
    {
      "name": "OSG_Scene",
      "nodes": [
        0
      ]
    }
  ],
  "textures": [
    {
      "sampler": 0,
      "source": 0
    },
    {
      "sampler": 0,
      "source": 1
    }
  ]
}

