{
  "accessors": [
    {
      "bufferView": 2,
      "componentType": 5126,
      "count": 1119,
      "max": [
        0.059499990195035934,
        0.14049999415874481,
        0.19250002503395081
      ],
      "min": [
        -0.059399999678134918,
        -0.14059999585151672,
        -0.0070999898016452789
      ],
      "type": "VEC3"
    },
    {
      "bufferView": 2,
      "byteOffset": 13428,
      "componentType": 5126,
      "count": 1119,
      "max": [
        0.99947363138198853,
        0.99834775924682617,
        0.99991947412490845
      ],
      "min": [
        -0.99948149919509888,
        -0.99842524528503418,
        -0.99998784065246582
      ],
      "type": "VEC3"
    },
    {
      "bufferView": 3,
      "componentType": 5126,
      "count": 1119,
      "max": [
        0.99870002269744873,
        0.99999934434890747,
        0.94859772920608521,
        1
      ],
      "min": [
        -0.99908930063247681,
        -0.99996936321258545,
        -0.98212671279907227,
        1
      ],
      "type": "VEC4"
    },
    {
      "bufferView": 1,
      "componentType": 5126,
      "count": 1119,
      "max": [
        0.9912179708480835,
        0.98957598209381104
      ],
      "min": [
        0.0053480002097785473,
        0.0053480002097785473
      ],
      "type": "VEC2"
    },
    {
      "bufferView": 0,
      "componentType": 5125,
      "count": 5052,
      "max": [
        1118
      ],
      "min": [
        0
      ],
      "type": "SCALAR"
    },
    {
      "bufferView": 2,
      "byteOffset": 26856,
      "componentType": 5126,
      "count": 749,
      "max": [
        0.038799989968538284,
        0.046300001442432404,
        0.17749999463558197
      ],
      "min": [
        -0.035299990326166153,
        -0.037000000476837158,
        0.072999998927116394
      ],
      "type": "VEC3"
    },
    {
      "bufferView": 2,
      "byteOffset": 35844,
      "componentType": 5126,
      "count": 749,
      "max": [
        0.98581546545028687,
        0.95675939321517944,
        0.98927652835845947
      ],
      "min": [
        -0.8240121603012085,
        -0.95678114891052246,
        -0.98926341533660889
      ],
      "type": "VEC3"
    },
    {
      "bufferView": 3,
      "byteOffset": 17904,
      "componentType": 5126,
      "count": 749,
      "max": [
        0.93756049871444702,
        0.9862971305847168,
        0.99008095264434814,
        1
      ],
      "min": [
        -0.99012660980224609,
        -0.98775655031204224,
        -0.99686837196350098,
        1
      ],
      "type": "VEC4"
    },
    {
      "bufferView": 1,
      "byteOffset": 8952,
      "componentType": 5126,
      "count": 749,
      "max": [
        0.99230802059173584,
        0.99182999134063721
      ],
      "min": [
        0.003831000067293644,
        0.003831000067293644
      ],
      "type": "VEC2"
    },
    {
      "bufferView": 0,
      "byteOffset": 20208,
      "componentType": 5125,
      "count": 1296,
      "max": [
        748
      ],
      "min": [
        0
      ],
      "type": "SCALAR"
    },
    {
      "bufferView": 2,
      "byteOffset": 44832,
      "componentType": 5126,
      "count": 1029,
      "max": [
        0.041000001132488251,
        0.062699988484382629,
        0.17180000245571136
      ],
      "min": [
        -0.064499996602535248,
        -0.036899998784065247,
        0.052099999040365219
      ],
      "type": "VEC3"
    },
    {
      "bufferView": 2,
      "byteOffset": 57180,
      "componentType": 5126,
      "count": 1029,
      "max": [
        0.99897366762161255,
        0.99443513154983521,
        0.99999606609344482
      ],
      "min": [
        -0.9990684986114502,
        -0.99961245059967041,
        -0.99808388948440552
      ],
      "type": "VEC3"
    },
    {
      "bufferView": 3,
      "byteOffset": 29888,
      "componentType": 5126,
      "count": 1029,
      "max": [
        0.99850249290466309,
        0.99769246578216553,
        0.99980664253234863,
        1
      ],
      "min": [
        -0.99937844276428223,
        -0.99723446369171143,
        -0.99947428703308105,
        -1
      ],
      "type": "VEC4"
    },
    {
      "bufferView": 1,
      "byteOffset": 14944,
      "componentType": 5126,
      "count": 1029,
      "max": [
        0.98909002542495728,
        0.98934298753738403
      ],
      "min": [
        0.003831000067293644,
        0.003831000067293644
      ],
      "type": "VEC2"
    },
    {
      "bufferView": 0,
      "byteOffset": 25392,
      "componentType": 5125,
      "count": 4716,
      "max": [
        1028
      ],
      "min": [
        0
      ],
      "type": "SCALAR"
    }
  ],
  "asset": {
    "extras": {
      "author": "Sergey Egelsky (https://sketchfab.com/egelsky)",
      "license": "CC-BY-4.0 (http://creativecommons.org/licenses/by/4.0/)",
      "source": "https://sketchfab.com/models/21b2513827744464b8d18083042380b5",
      "title": "Low Poly Boot"
    },
    "generator": "Sketchfab-4.10.1",
    "version": "2.0"
  },
  "bufferViews": [
    {
      "buffer": 0,
      "byteLength": 44256,
      "byteOffset": 0,
      "name": "floatBufferViews",
      "target": 34963
    },
    {
      "buffer": 0,
      "byteLength": 23176,
      "byteOffset": 44256,
      "byteStride": 8,
      "name": "floatBufferViews",
      "target": 34962
    },
    {
      "buffer": 0,
      "byteLength": 69528,
      "byteOffset": 67432,
      "byteStride": 12,
      "name": "floatBufferViews",
      "target": 34962
    },
    {
      "buffer": 0,
      "byteLength": 46352,
      "byteOffset": 136960,
      "byteStride": 16,
      "name": "floatBufferViews",
      "target": 34962
    }
  ],
  "buffers": [
    {
      "byteLength": 183312,
      "uri": "scene.bin"
    }
  ],
  "images": [
    {
      "uri": "textures/shnurki_metallicRoughness.png"
    },
    {
      "uri": "textures/shnurki_normal.jpeg"
    },
    {
      "uri": "textures/shnurki_baseColor.jpeg"
    },
    {
      "uri": "textures/Standardmaterial_metallicRoughness.png"
    },
    {
      "uri": "textures/Standardmaterial_normal.jpeg"
    },
    {
      "uri": "textures/Standardmaterial_baseColor.jpeg"
    },
    {
      "uri": "textures/bolts_metallicRoughness.png"
    },
    {
      "uri": "textures/bolts_normal.png"
    },
    {
      "uri": "textures/bolts_baseColor.jpeg"
    }
  ],
  "materials": [
    {
      "doubleSided": true,
      "emissiveFactor": [
        0,
        0,
        0
      ],
      "name": "Standardmaterial",
      "normalTexture": {
        "index": 4,
        "scale": 1,
        "texCoord": 0
      },
      "pbrMetallicRoughness": {
        "baseColorFactor": [
          1,
          1,
          1,
          1
        ],
        "baseColorTexture": {
          "index": 5,
          "texCoord": 0
        },
        "metallicFactor": 1,
        "metallicRoughnessTexture": {
          "index": 3,
          "texCoord": 0
        },
        "roughnessFactor": 1
      }
    },
    {
      "doubleSided": false,
      "name": "bolts",
      "normalTexture": {
        "index": 7,
        "scale": 1,
        "texCoord": 0
      },
      "occlusionTexture": {
        "index": 6,
        "strength": 1,
        "texCoord": 0
      },
      "pbrMetallicRoughness": {
        "baseColorFactor": [
          1,
          1,
          1,
          1
        ],
        "baseColorTexture": {
          "index": 8,
          "texCoord": 0
        },
        "metallicFactor": 1,
        "metallicRoughnessTexture": {
          "index": 6,
          "texCoord": 0
        },
        "roughnessFactor": 1
      }
    },
    {
      "doubleSided": false,
      "name": "shnurki",
      "normalTexture": {
        "index": 1,
        "scale": 1,
        "texCoord": 0
      },
      "occlusionTexture": {
        "index": 0,
        "strength": 1,
        "texCoord": 0
      },
      "pbrMetallicRoughness": {
        "baseColorFactor": [
          1,
          1,
          1,
          1
        ],
        "baseColorTexture": {
          "index": 2,
          "texCoord": 0
        },
        "metallicFactor": 1,
        "metallicRoughnessTexture": {
          "index": 0,
          "texCoord": 0
        },
        "roughnessFactor": 1
      }
    }
  ],
  "meshes": [
    {
      "name": "Boots_Standardmaterial_0",
      "primitives": [
        {
          "attributes": {
            "NORMAL": 1,
            "POSITION": 0,
            "TANGENT": 2,
            "TEXCOORD_0": 3
          },
          "indices": 4,
          "material": 0,
          "mode": 4
        }
      ]
    },
    {
      "name": "Bolts_bolts_0",
      "primitives": [
        {
          "attributes": {
            "NORMAL": 6,
            "POSITION": 5,
            "TANGENT": 7,
            "TEXCOORD_0": 8
          },
          "indices": 9,
          "material": 1,
          "mode": 4
        }
      ]
    },
    {
      "name": "Shnurki_shnurki_0",
      "primitives": [
        {
          "attributes": {
            "NORMAL": 11,
            "POSITION": 10,
            "TANGENT": 12,
            "TEXCOORD_0": 13
          },
          "indices": 14,
          "material": 2,
          "mode": 4
        }
      ]
    }
  ],
  "nodes": [
    {
      "children": [
        1
      ],
      "name": "RootNode (gltf orientation matrix)",
      "rotation": [
        -0.70710678118654746,
        -0,
        -0,
        0.70710678118654757
      ]
    },
    {
      "children": [
        2
      ],
      "name": "RootNode (model correction matrix)"
    },
    {
      "children": [
        3
      ],
      "matrix": [
        1,
        0,
        0,
        0,
        0,
        0,
        1,
        0,
        0,
        -1,
        0,
        0,
        0,
        0,
        0,
        1
      ],
      "name": "83470c2efe6648c7b71fc984f456bc17.fbx"
    },
    {
      "children": [
        4,
        6,
        9
      ],
      "name": "RootNode"
    },
    {
      "children": [
        5
      ],
      "matrix": [
        1,
        0,
        0,
        0,
        0,
        2.2204460492503131e-16,
        -1,
        0,
        0,
        1,
        2.2204460492503131e-16,
        0,
        0,
        0,
        0,
        1
      ],
      "name": "Boots"
    },
    {
      "mesh": 0,
      "name": "Boots_Standardmaterial_0"
    },
    {
      "children": [
        7
      ],
      "matrix": [
        1,
        0,
        0,
        0,
        0,
        2.2204460492503131e-16,
        -1,
        0,
        0,
        1,
        2.2204460492503131e-16,
        0,
        -0.011749997735023499,
        0.11479999870061874,
        -0.012849994003772736,
        1
      ],
      "name": "Bolts"
    },
    {
      "children": [
        8
      ],
      "matrix": [
        1,
        0,
        -0,
        0,
        0,
        1,
        0,
        0,
        0,
        0,
        1,
        0,
        0.011749997735023499,
        -0.012849994003772736,
        -0.11479999870061874,
        1
      ],
      "name": ""
    },
    {
      "mesh": 1,
      "name": "Bolts_bolts_0"
    },
    {
      "children": [
        10
      ],
      "matrix": [
        1,
        0,
        0,
        0,
        0,
        2.2204460492503131e-16,
        -1,
        0,
        0,
        1,
        2.2204460492503131e-16,
        0,
        -0.011749997735023499,
        0.11479999870061874,
        -0.012849994003772736,
        1
      ],
      "name": "Shnurki"
    },
    {
      "children": [
        11
      ],
      "matrix": [
        1,
        0,
        -0,
        0,
        0,
        1,
        0,
        0,
        0,
        0,
        1,
        0,
        0.011749997735023499,
        -0.012849994003772736,
        -0.11479999870061874,
        1
      ],
      "name": ""
    },
    {
      "mesh": 2,
      "name": "Shnurki_shnurki_0"
    }
  ],
  "samplers": [
    {
      "magFilter": 9729,
      "minFilter": 9987,
      "wrapS": 10497,
      "wrapT": 10497
    }
  ],
  "scene": 0,
  "scenes": [
    {
      "name": "OSG_Scene",
      "nodes": [
        0
      ]
    }
  ],
  "textures": [
    {
      "sampler": 0,
      "source": 0
    },
    {
      "sampler": 0,
      "source": 1
    },
    {
      "sampler": 0,
      "source": 2
    },
    {
      "sampler": 0,
      "source": 3
    },
    {
      "sampler": 0,
      "source": 4
    },
    {
      "sampler": 0,
      "source": 5
    },
    {
      "sampler": 0,
      "source": 6
    },
    {
      "sampler": 0,
      "source": 7
    },
    {
      "sampler": 0,
      "source": 8
    }
  ]
}

